# xmcd
#
# Track frame offsets: 
#        150
#        13912
#        24182
#        37447
#        49467
#        61992
#        75647
#        83305
#        98232
#        111570
#        125805
#        138625
#        149947
#        160905
#        179050
#
# Disc length: 2544 seconds
#
# Revision: 12
# Processed by: cddbd v1.5.2PL0 Copyright (c) Steve Scherf et al.
# Submitted via: ExactAudioCopy v0.95b4
#
DISCID=e409ee0f
DTITLE=Jesus And Mary Chain, The - Psychocandy
DYEAR=1985
DGENRE=Alternative
TTITLE0=Just Like Honey
TTITLE1=The Living End
TTITLE2=Taste The Floor
TTITLE3=The Hardest Walk
TTITLE4=Cut Dead
TTITLE5=In A Hole
TTITLE6=Taste Of Cindy
TTITLE7=Some Candy Talking
TTITLE8=Never Understand
TTITLE9=Inside Me
TTITLE10=Sowing Seeds
TTITLE11=My Little Underground
TTITLE12=You Trip Me Up
TTITLE13=Something's Wrong
TTITLE14=It's So Hard
EXTD=YEAR: 1985
EXTT0=
EXTT1=
EXTT2=
EXTT3=
EXTT4=
EXTT5=
EXTT6=
EXTT7=
EXTT8=
EXTT9=
EXTT10=
EXTT11=
EXTT12=
EXTT13=
EXTT14=
PLAYORDER=
